<svg width="25" height="23" viewBox="0 0 25 23" fill="none" xmlns="http://www.w3.org/2000/svg">
<path d="M4.00001 12L4 5.49999L20.5 5.5" stroke="white" stroke-width="4"/>
<path d="M21.1987 11L21.1987 17.08L4.36182 17.08" stroke="white" stroke-width="4"/>
<path d="M23.8136 4.67801C24.3876 5.07569 24.3876 5.92431 23.8136 6.32199L19.0695 9.60877C18.4063 10.0683 17.5 9.5936 17.5 8.78678V2.21322C17.5 1.4064 18.4063 0.931746 19.0695 1.39123L23.8136 4.67801Z" fill="white"/>
<path d="M1.18645 18.0181C0.61244 17.6205 0.612441 16.7718 1.18645 16.3742L5.93051 13.0874C6.59371 12.6279 7.5 13.1026 7.5 13.9094L7.5 20.4829C7.5 21.2898 6.59371 21.7644 5.93051 21.3049L1.18645 18.0181Z" fill="white"/>
</svg>
